<?xml version="1.0" encoding="UTF-8" standalone="no"?>
<!-- Uploaded to: SVG Repo, www.svgrepo.com, Generator: SVG Repo Mixer Tools -->

<svg
   width="800"
   height="800"
   viewBox="0 0 24 24"
   fill="none"
   version="1.1"
   id="svg1"
   sodipodi:docname="heart.svg"
   inkscape:version="1.4.2 (f4327f4, 2025-05-13)"
   xml:space="preserve"
   xmlns:inkscape="http://www.inkscape.org/namespaces/inkscape"
   xmlns:sodipodi="http://sodipodi.sourceforge.net/DTD/sodipodi-0.dtd"
   xmlns="http://www.w3.org/2000/svg"
   xmlns:svg="http://www.w3.org/2000/svg"><sodipodi:namedview
     id="namedview1"
     pagecolor="#ffffff"
     bordercolor="#000000"
     borderopacity="0.25"
     inkscape:showpageshadow="2"
     inkscape:pageopacity="0.0"
     inkscape:pagecheckerboard="0"
     inkscape:deskcolor="#d1d1d1"
     inkscape:zoom="0.504375"
     inkscape:cx="258.73606"
     inkscape:cy="232.96159"
     inkscape:window-width="1920"
     inkscape:window-height="1009"
     inkscape:window-x="1912"
     inkscape:window-y="-8"
     inkscape:window-maximized="1"
     inkscape:current-layer="svg1" /><defs
     id="defs1" /><path
     style="baseline-shift:baseline;clip-rule:evenodd;display:inline;overflow:visible;vector-effect:none;fill:#dcd7c9;fill-rule:evenodd;stroke-width:0.946449;stroke-linecap:round;stroke-linejoin:round;enable-background:accumulate;stop-color:#000000;fill-opacity:1"
     d="M 8.9169189,3.5623637 C 7.4769791,3.3601597 5.9691555,3.7160304 4.7041277,4.7934818 2.2072629,6.9201054 1.8378113,10.566929 3.8131383,13.100756 c 1.5657583,2.008387 5.720345,5.676306 7.1112787,6.904243 0.154626,0.136543 0.309192,0.319217 0.678409,0.428859 0.259528,0.07714 0.522686,0.07696 0.781926,0 0.369392,-0.109695 0.525752,-0.292506 0.680257,-0.428859 1.390943,-1.227945 5.545503,-4.895886 7.111281,-6.904243 1.972873,-2.530697 1.645261,-6.2041491 -0.902081,-8.3146683 -2.29021,-1.8974783 -5.250153,-1.4474545 -7.27395,0.3050065 -0.899118,-0.77899 -1.942297,-1.3684995 -3.0833401,-1.5287305 z"
     id="path1" /></svg>
