<?xml version="1.0" encoding="UTF-8" standalone="no"?>
<!-- Created with Inkscape (http://www.inkscape.org/) -->

<svg
   width="192.063mm"
   height="208.21619mm"
   viewBox="0 0 192.063 208.21619"
   version="1.1"
   id="svg1"
   xml:space="preserve"
   sodipodi:docname="bookbook.svg"
   inkscape:version="1.4.2 (f4327f4, 2025-05-13)"
   xmlns:inkscape="http://www.inkscape.org/namespaces/inkscape"
   xmlns:sodipodi="http://sodipodi.sourceforge.net/DTD/sodipodi-0.dtd"
   xmlns="http://www.w3.org/2000/svg"
   xmlns:svg="http://www.w3.org/2000/svg"><sodipodi:namedview
     id="namedview1"
     pagecolor="#ffffff"
     bordercolor="#000000"
     borderopacity="0.25"
     inkscape:showpageshadow="2"
     inkscape:pageopacity="0.0"
     inkscape:pagecheckerboard="0"
     inkscape:deskcolor="#d1d1d1"
     inkscape:document-units="mm"
     inkscape:zoom="0.7251144"
     inkscape:cx="175.14478"
     inkscape:cy="504.05839"
     inkscape:window-width="1920"
     inkscape:window-height="1009"
     inkscape:window-x="1912"
     inkscape:window-y="-8"
     inkscape:window-maximized="1"
     inkscape:current-layer="layer1" /><defs
     id="defs1" /><g
     id="layer1"
     transform="matrix(0.84326412,0,0,0.84326412,-214.10883,74.670853)"><path
       id="path7"
       style="fill:#bca88d;fill-opacity:1;stroke:none;stroke-width:8.31612;stroke-dasharray:none;stroke-opacity:1"
       d="m 350.86994,-59.762038 c -9.43234,0.391215 -17.83946,6.890025 -20.26619,16.533694 l -7.18511,28.552539 c -0.2076,0.0395 -0.41542,0.09718 -0.62317,0.145098 0.94505,-0.217974 1.89026,-0.362063 2.82023,-0.408226 4.18005,-0.207494 7.99071,1.00665 11.23217,2.524613 2.08075,0.974407 3.97446,2.109786 5.58685,3.2024617 l 12.66096,-50.3152057 c -0.77841,-0.119287 -1.55505,-0.195903 -2.327,-0.231184 -0.63647,-0.02908 -1.26991,-0.02987 -1.89874,-0.0038 z m 12.31447,2.16782 -13.87861,55.1532806 a 4.6496911,4.6496911 0 0 1 0,5.419e-4 4.6496911,4.6496911 0 0 1 -1.19707,4.2354795 4.6496911,4.6496911 0 0 1 -6.57493,0.1109898 c 0,0 -3.90276,-3.6854649 -8.63122,-5.8997855 -2.36422,-1.1071602 -4.82045,-1.7568311 -6.82614,-1.6572677 -1.96012,0.0973 -3.55359,0.6856031 -5.38814,2.735764 -2.19595,3.08156493 -2.64945,6.6323449 -1.84786,11.0193942 0.8174,4.4734682 3.06596,9.5201602 5.79097,14.1379382 5.44999,9.235534 12.5294,16.597039 12.5294,16.597039 a 4.6496911,4.6496911 0 0 1 -0.11045,6.574929 c 0.0644,0.0271 0.12899,0.05391 0.19329,0.08067 l -12.83909,51.022834 c 2.19562,0.458907 3.57911,0.912877 3.78773,0.982665 L 437.3792,124.97538 448.82307,79.497162 c 12.04299,-8.716209 33.8443,-25.935854 32.84162,-35.707863 -1.14875,-11.195588 -16.59799,-9.231855 -21.78,-8.250062 l 10.94143,-43.4820235 c 2.9583,-11.7560915 -4.1241,-23.6023785 -15.88021,-26.5606775 z m -40.88811,43.180457 c -0.41313,0.108863 -0.8248,0.236726 -1.23551,0.37953 0.41047,-0.142718 0.82263,-0.270711 1.23551,-0.37953 z m -1.46723,0.453705 c -0.48481,0.176466 -0.96606,0.379898 -1.44288,0.604759 0.47678,-0.224834 0.95811,-0.428309 1.44288,-0.604759 z m -1.86193,0.820241 c -0.33747,0.170523 -0.67231,0.349066 -1.00324,0.544662 0.33074,-0.195474 0.66596,-0.374232 1.00324,-0.544662 z m -1.49971,0.854351 c -0.30455,0.194027 -0.60457,0.39888 -0.90146,0.615046 0.29674,-0.216044 0.59708,-0.421118 0.90146,-0.615046 z m -1.38603,0.977252 c -0.30644,0.239533 -0.60503,0.495823 -0.90092,0.760145 0.29571,-0.264154 0.59467,-0.520751 0.90092,-0.760145 z m -1.30372,1.11802 c -0.42045,0.3988166 -0.8314,0.8173449 -1.22468,1.2690733 0.39325,-0.4516915 0.80426,-0.870288 1.22468,-1.2690733 z m 33.23414,5.4238827 a 4.6496911,4.6496911 0 0 1 0.14943,0.164048 c -0.0476,-0.056796 -0.0966,-0.1120489 -0.14943,-0.164048 z M 314.10037,22.355813 303.565,64.222258 c -10.44863,-11.071191 -11.33678,-26.406146 -18.17038,-15.39077 -8.9724,14.462964 -4.85884,41.693543 5.75955,55.533892 2.7394,-2.83566 5.88354,-4.87901 9.11632,-6.222465 3.37381,-1.402086 6.82059,-2.139386 10.09413,-2.455855 1.99781,-0.193138 3.92145,-0.232095 5.71786,-0.172169 l 13.01017,-51.703933 c 0.53139,0.589497 0.93006,1.016192 1.15972,1.258787 -1.30779,-1.381874 -8.10881,-8.744747 -13.63009,-18.101086 -0.87757,-1.487134 -1.72814,-3.027353 -2.52191,-4.612846 z m 16.3756,22.947823 c 0.0717,0.07423 0.14495,0.138194 0.21874,0.198158 a 4.6496911,4.6496911 0 0 1 -0.21874,-0.198158 z m -16.47359,58.637284 c -3.44046,0.0145 -7.17438,0.48196 -10.54187,1.8814 -4.34858,1.80716 -8.15992,4.8567 -10.65828,10.98312 1.78406,7.7397 7.7371,14.20555 15.99716,16.28411 l 97.78149,24.60563 c 11.75609,2.95829 23.60239,-4.12412 26.56068,-15.88021 l 2.20788,-8.77469 -98.46204,-24.77618 -4.21978,16.77083 a 2.876747,2.876747 0 0 1 -5.11583,0.99079 l -4.42226,-6.08386 -9.37783,3.24144 a 2.876747,2.876747 0 0 1 -3.72871,-3.42173 z" /><path
       d="m 376.80107,88.625293 c -4.47984,-2.821319 -7.65684,-7.125039 -10.95236,-14.836464 -4.39331,-10.28028 -4.94859,-26.347906 -1.52442,-44.11161 2.7821,-14.432872 4.71226,-15.688383 13.53225,-8.802416 5.92772,4.62793 8.30637,6.016697 18.21659,10.635922 10.26357,4.783901 22.07113,8.019009 28.89723,7.917424 7.47939,-0.111287 11.53883,-1.159647 13.22674,-3.415805 0.81723,-1.092363 1.76427,-1.916054 2.10451,-1.830447 1.2049,0.303204 -0.65747,5.217628 -2.99743,7.909661 -1.28879,1.482694 -4.25861,6.111127 -6.59959,10.285403 -8.45415,15.07469 -13.24602,21.615666 -21.27754,29.044067 -6.17414,5.710507 -11.11513,8.883412 -15.65779,10.054751 -3.21814,0.829821 -4.65286,0.802224 -9.18917,-0.176736 -3.31539,-0.7156 -6.29672,-1.74025 -7.77902,-2.67375 z m 13.67166,-1.14633 c 5.33391,-1.50543 8.32421,-7.367633 7.47155,-14.647239 -0.79817,-6.814427 -3.36543,-10.667059 -10.68862,-16.040301 -4.5425,-3.332995 -6.43032,-4.035101 -7.9198,-2.945577 -1.53606,1.123637 -2.73241,0.526061 -4.0354,-2.015627 -1.0759,-2.098679 -1.52015,-2.382825 -5.15587,-3.297718 -3.49519,-0.879523 -3.97242,-0.857983 -3.92862,0.178245 0.0273,0.648641 0.0314,2.074843 0.009,3.169344 -0.20941,10.111149 4.55675,24.818138 9.78918,30.206646 4.46327,4.596425 9.98389,6.655271 14.45892,5.392227 z M 421.71041,55.34961 c 3.31977,-3.831228 7.79948,-10.114041 8.12023,-11.388705 0.1669,-0.663246 -0.80151,-0.82017 -4.64467,-0.752646 -2.67054,0.04693 -5.18751,0.271501 -5.59329,0.499093 -1.24675,0.699266 -2.33042,14.681529 -1.16068,14.975881 0.17609,0.04432 1.65129,-1.455863 3.27841,-3.333623 z M 383.87763,41.61914 c 4.4158,-6.85624 5.04723,-8.283417 3.94703,-8.921089 -0.40003,-0.231971 -2.94436,-1.579899 -5.65402,-2.995603 l -4.92662,-2.573979 -0.20932,2.374539 c -0.47186,5.353378 0.9636,18.490274 2.01467,18.437501 0.43024,-0.02158 2.60298,-2.866255 4.82826,-6.321369 z M 400.979,40.219466 c 0.74695,-1.35981 0.61422,-1.49248 -2.96558,-2.966101 -3.35025,-1.379119 -3.45954,-1.224058 -2.65533,3.767653 l 0.56984,3.537034 2.22091,-1.614725 c 1.22149,-0.888092 2.49507,-2.113818 2.83016,-2.723861 z m 11.07159,5.274287 c 1.41712,-1.246993 2.44412,-2.48881 2.28225,-2.759536 -0.16195,-0.270841 -1.5171,-0.799939 -3.01159,-1.176012 -2.2262,-0.560204 -2.77004,-0.474031 -3.0093,0.476746 -0.42231,1.678205 -9.4e-4,5.433276 0.62652,5.591321 0.29457,0.07418 1.69504,-0.885505 3.11212,-2.132519 z M 397.73402,22.980721 c -1.78092,-0.882939 -2.38194,-4.906314 -1.47647,-9.883572 l 0.86993,-4.7818682 -2.91811,-2.6562537 c -5.38078,-4.89795372 -13.7763,-21.1007531 -11.60582,-22.3985071 0.3029,-0.181105 2.8575,3.371172 5.67691,7.8939757 5.99687,9.62007202 10.24478,13.8452873 15.16414,15.0831968 1.69309,0.4260471 3.97188,0.564731 5.06394,0.3081913 2.25794,-0.5304189 6.67482,-3.4102307 8.24503,-5.3758095 1.4284,-1.78801459 2.51948,-1.35913878 2.88663,1.1346693 0.1676,1.1383779 1.17966,3.3777834 2.24908,4.9764472 1.80112,2.6925776 2.17822,2.9422022 5.11986,3.3889732 4.09606,0.622103 6.49345,-0.395664 9.92542,-4.2136175 1.52787,-1.699746 2.98981,-3.0379936 3.24872,-2.9738534 0.25889,0.064224 0.21939,1.115381 -0.0878,2.3362234 -0.65556,2.6051155 -3.31667,5.8312445 -6.05804,7.3443115 -1.76332,0.973208 -2.04988,1.519573 -3.1084,5.926798 -1.51156,6.293217 -3.88807,9.42126 -6.633,8.730533 -2.98425,-0.75096 -3.75817,-3.693948 -2.54112,-9.662965 0.87841,-4.307882 0.86292,-5.107256 -0.11028,-5.709128 -0.62243,-0.384935 -1.88956,-1.798774 -2.81584,-3.1419042 l -1.68416,-2.442062 -3.35365,1.8242021 c -1.8445,1.0033295 -3.97657,1.8621601 -4.73799,1.9085211 -1.22218,0.07439 -1.56515,0.693734 -2.92761,5.286632 -1.31227,4.42366 -1.82123,5.380483 -3.40022,6.392519 -1.95354,1.252074 -3.45814,1.464391 -4.99114,0.704347 z m 6.53514,-10.419292 c 0.5801,-1.614306 0.47933,-1.995019 -0.59672,-2.265797 -0.85741,-0.215753 -1.39593,0.08015 -1.59651,0.87726 -0.8773,3.486294 1.01006,4.681209 2.19323,1.388537 z m 24.69211,4.54022 c 0.8027,-1.509431 0.74067,-1.683632 -0.65209,-1.831002 -1.7582,-0.186074 -2.79767,1.438073 -1.99467,3.116613 0.64872,1.356037 1.44853,0.96754 2.64676,-1.285611 z"
       style="fill:#3e3f29;fill-opacity:1;stroke-width:2.44389"
       id="path1-5" /></g></svg>
